<?xml version="1.0" encoding="UTF-8"?>
<svg xmlns="http://www.w3.org/2000/svg" version="1.1" viewBox="0 0 1187.78 677.06">
  <!-- Generator: Adobe Illustrator 30.5.1, SVG Export Plug-In . SVG Version: 2.1.4 Build 3)  -->
  <defs>
    <style>
      .st0, .st1, .st2, .st3 {
        fill: #e82025;
      }

      .st1 {
        letter-spacing: .04em;
      }

      .st1, .st3 {
        font-family: Alize-Regular, Alize;
      }

      .st2 {
        stroke: #e82025;
        stroke-width: .75px;
      }

      .st2, .st4, .st5, .st6 {
        stroke-miterlimit: 10;
      }

      .st4, .st7 {
        fill: #ea2e2e;
      }

      .st4, .st6 {
        stroke: #ea2e2e;
        stroke-width: .25px;
      }

      .st8, .st9 {
        font-size: 60px;
      }

      .st8, .st10, .st11 {
        fill: #231f20;
        font-family: GoodHeadlinePro-CondBook, 'Good Headline Pro';
      }

      .st8, .st11 {
        letter-spacing: .14em;
      }

      .st5 {
        fill: none;
        stroke: #a13129;
      }

      .st12 {
        fill: #fff;
      }

      .st3 {
        font-size: 37px;
      }

      .st10 {
        letter-spacing: .14em;
      }

      .st7, .st13 {
        fill-rule: evenodd;
      }

      .st6, .st13 {
        fill: #a13129;
      }
    </style>
  </defs>
  <g id="Layer_1">
    <text class="st8" transform="translate(750.16 307.67)"><tspan x="0" y="0">HEART</tspan><tspan x="0" y="49.6">JEROME</tspan></text>
    <text class="st9" transform="translate(761.54 545.09)"><tspan class="st11" x="0" y="0">HEART</tspan><tspan class="st1" x="164.7" y="-7" xml:space="preserve">  </tspan><tspan class="st10" x="189.9" y="0">JEROME</tspan></text>
    <text class="st3" transform="translate(921.96 530.36)"><tspan x="0" y="0">of</tspan></text>
    <text class="st3" transform="translate(904.18 308.44)"><tspan x="0" y="0">of</tspan></text>
    <g>
      <g>
        <path class="st2" d="M21.84,93.6l3.25-3.46,2.22-2.36,2.46-2.61,5.78-6.11,4.39-4.76c-1.05.06-1.78.33-2.57.08-.34-.11-.77-.71-.74-1,.11-1.25,2.43-.72,3.99-1.72,5.33-3.41,3.31-7.48,5.63-7.52.94-.02,1.83,0,2.77.12,1.35.18.54,6.59,4.44,6.23,0-2.87-.04-5.65-.55-8.46-.13-.7-1.24-1.03-1.79-1.2l-5.1-1.61c-.73-.23-1.6-.22-2.28.21l-4.29,2.71c-.81.51-1.51,1.14-2.28,1.75-.73.57-1.46,1.42-1.87,2.21-1.06,2.06-2.75,2.92-4.65,3.91-4.9,2.55-10.49,2.68-15.26-.33-.42-.26-1.18-.5-1.56-.85-1.66-1.54-3.12-3.01-4.7-4.64-3.57-3.67-6.18-8.07-7.62-13.01-.62-2.11-.86-4.18-1.05-6.36-.25-2.99.19-5.84,1-8.76,1.99-7.17,6.78-13.38,13.46-16.69,4.78-2.36,9.95-3.37,15.18-2.6,8.7,1.28,16.03,6.67,19.79,14.54,2.27-5.03,7.19-10.15,12.19-12.28,2.6-1.33,5.28-1.94,8.17-2.33,8.11-1.08,16.78,2.41,22.2,8.49,6.15,6.9,8.38,16.55,5.98,25.46-1.55,5.79-4.8,10.51-8.96,14.69l-6.04,6.08-9.74,9.84-2.18,2.22c2.99-.15,5.5.69,7.69,2.54,1.54,1.3,2.94,2.64,4.21,4.26.34.44.3,1.68,0,2.1-.33.45-.65.91-1.02,1.27l-6.56,6.56-3.96,3.94c-.72.71-1.94.63-2.64-.09-1.37-1.41-2.65-2.82-3.9-4.33-1.85-2.25-2.47-5.21-2.11-8.05l-12.62,12.89c-.62.63-1.51.14-1.99-.36l-6.98-7.21-6.68-6.82-2.58,2.64-6.07,6.33c-.86.9-1.96,1.27-3.19,1.1-1.02-.14-2.06-.87-2.62-1.91-1.11-2.08.04-3.31,1.38-4.73ZM71.62,40.06l-2.06,2.15,2.19,2.18,6.99-7.07c.46-.46,1.18-.41,1.58.06.33.38.36,1-.09,1.46l-6.57,6.71c-.14.15-.08.68.06.81l1.78,1.72,6.99-7.19c.41-.42,1.2-.24,1.5.15.31.41.36,1.07-.05,1.49l-6.93,7.07,2.14,2.16,6.82-7.02c.4-.41,1.06-.5,1.51-.2.34.22.66,1.03.27,1.42l-7.08,7.21c.69.87,1.41,1.61,2.22,2.23l6.89-7.05c.42-.43,1.13-.44,1.53-.1s.49,1.09.07,1.52l-5.47,5.58c-1.29,1.32-2.46,2.67-3.87,3.84s-3.38,1.28-4.94.23c-2.24-1.5-4.11-3.92-6.45-5.85-.32-.26-1.3.04-1.59.34l-3.62,3.74-3.71,3.83-3.98,4.18,2.35,1.45c1.26.78,1.83,2.3,1.71,3.74-.12,1.35-1.05,2.45-2.37,3.28l8.6,8.89c.16.16.68.1.83-.05l6.43-6.52,3.14-3.18,5.04-5.1,5.48-5.55c4.5-4.55,7.41-10.35,8.07-16.76.51-4.97-.6-9.75-2.88-14.19-5.35-10.4-17.6-15.5-28.63-11.71-6.92,2.37-12.1,7.91-14.72,14.63-.19.49-.84.76-1.2.64-.49-.17-.75-.51-.94-1.01-2.17-5.76-6.43-10.46-11.94-13.16-2.12-1.04-4.1-1.71-6.43-2.05-5.47-.79-10.96.18-15.69,3.06C5.11,27.83.59,39.27,3.53,50.03c1.12,4.11,3.03,7.89,5.84,11.1,1.84,2.09,3.67,3.98,5.83,5.72,3.23,2.61,7.52,3.62,11.53,2.45,1.8-.53,3.29-1.55,4.9-2.42.62-.5,1.14-1.03,1.63-1.66,1.22-2.05,2.91-3.59,5.04-4.87l-5.53-5.69-5.41,5.17c-.66.58-1.62.79-2.25.11l-4.82-5.21c-3.62-3.92-6.24-8.58-6.5-14.01-.16-3.37.27-6.59,1.28-9.77.16-.5.65-.93,1.12-1.06,2.3-.63,4.54-.75,6.85-.68,5.77.17,10.7,2.59,14.66,6.76l5.7,5.99c.65.69.6,1.64-.06,2.33-2,2.08-3.27,3.14-5.31,5.14,1.73,2.03,3.36,3.84,5.17,5.7.45.47.88,1.01,1.29,1.53,2.89.65,6.45,1.71,9.3,2.95.96-.89,1.85-1.87,2.76-2.82l4.28-4.46,2.91-3.04c.75-.79.87-1.93.06-2.75l-5.01-5.07c-1.91-1.93-1.65-4.54.19-6.41l8.7-8.81c.43-.43,1.32-.11,1.56.27.26.41.16,1-.23,1.39l-6.78,6.94,2.18,2.14,6.57-6.91c.49-.51,1.17-.67,1.69-.24.31.26.68,1,.26,1.43l-7,7.15c.64.8,1.29,1.49,2.09,2.21l7.02-7.2c.43-.44,1.32-.16,1.55.23.28.47.18,1.04-.22,1.45l-4.8,4.9ZM27.18,44.88c.71-1.8,2.91-2.28,4.47-1.45,1.17.62,2.1,1.61,3.02,2.56l1.87,1.91c1.02-.74,1.69-1.47,2.52-2.29l2.51-2.49c-2.6-2.78-4.98-5.46-7.78-7.97-4.09-3.66-11.78-4.72-16.89-3.15-2.1,6.91-1.16,14.76,3.8,20.07l2.04,2.18,3.52,3.78,2.45-2.45,2.49-2.55-3.29-3.68c-.97-1.08-1.31-3.05-.75-4.47ZM67.52,52.43c1.45-1.43,3.59-1.42,5.05-.03l5.73,5.42c.71.67,2.17.15,2.79-.45.17-.17,0-.74-.19-.94l-20.03-20.02c-.71.34-1.15.98-1.24,1.49-.15.82.06,1.45.59,1.99l5.23,5.26c1.51,1.52,1.47,3.82.08,5.34l-2.49,2.73,1.86,1.78,2.62-2.59ZM36.47,55.41l2.23-2.1-7.2-7.45c-.3-.31-1.59-1.09-2.2-.51-.93.87.34,2.82,1.13,3.67l6.04,6.4ZM55.87,64.6l7.6-7.93-1.98-1.92-6.38,6.75c0,1.05.18,2.21.76,3.11ZM40.15,59.04l2.39-1.36-2.46-2.7-1.78,1.73c-.18.17.17.78.33.93l1.52,1.41ZM48.03,66.96l-.87-.84-.79,1.86,1.66-1.02ZM57.8,72.06c.86.24,1.49-.38,1.73-.84.34-.64.23-1.5-.31-1.97-1.11-.96-2.24-1.71-3.62-2.4-.04,1.35-.1,2.4.01,3.64.3.65,1.45,1.35,2.2,1.56ZM55.72,73.35c-.63-.52-1.11-.85-1.95-.74-2.58.34-3.98-1.15-5.24-3.12-.45.44-.96,1.32-.56,1.95.57.91,1.46,1.53,2.32,2.17,1.47,1.09,2.88,2.31,4.47,3.19.93.51,1.85-.56,2.04-1.23.29-1.03-.28-1.56-1.07-2.22ZM51.08,80.55c.96.17,1.66-.33,1.86-.95.29-.88-.09-1.44-.76-1.93l-5.14-3.78c-.28-.2-.84-.4-1.11-.33-1.02.27-1.14,1.71-.74,2.54,1.26,1.18,2.59,2.16,3.92,3.24.58.47,1.18,1.06,1.97,1.2ZM26.68,95.65l3.1-3.31,10.6-11.19c-.39-1.19-.73-2.32-.21-3.42s1.6-1.73,2.84-2.13c-.02-.43-.08-.89-.16-1.33l-1.72,1.78-8.06,8.72-9,9.57c-.69.73-1.67,1.59-1.82,2.55-.15,1.01,1.5,1.4,2.19.89.81-.6,1.48-1.35,2.23-2.15ZM60.94,82.74l1.92-2.01-4.12-4.38c-.45.98-.89,1.54-1.84,2.11l4.05,4.27ZM47.99,81.29l-3.58-3c-.64-.54-1.39-.6-2.07-.05-.45.36-.62,1.48-.05,2.05,1.23,1.22,2.6,2.37,4.05,3.32.7.45,1.68.19,2.06-.48.3-.53.21-1.32-.41-1.84ZM49.76,102.2l7.83-7.93,3.07-3.05,1.97-2.07c.3-.31.53-.89.16-1.27l-7.52-7.98c-.76,2.02-2.49,3.09-4.65,2.84-.14,1.19-.63,2.2-1.48,2.72-.98.6-2.08.79-3.2.43-.61-.2-1.17-.06-1.79.07-1.71.34-3.42.2-5.12-.12l-2.6,2.72,13.32,13.66ZM77.07,95.96l4.23-4.31c-.09-.71-.63-1.24-1.1-1.72-1.12-1.14-2.14-2.3-3.52-3.11-1.85-1.08-3.94-1.31-6.09-1.22-3.2.13-3.94-1.19-6.15-3.27l-2.02,1.97,2.3,2.75c.84,1,.78,2.43.65,3.73-.83,5.63,1.33,8.05,5.39,11.54l6.3-6.37ZM43.5,84.03l-1.79-1.35-.98,1.24,2.77.11Z"/>
        <path class="st2" d="M71.11,99c-.41.41-.93.39-1.39,0-2.92-2.49-3.62-7.19-1.63-10.32.95-1.49,7-2.39,10.05,1.75.49.67.3,1.2-.24,1.74l-6.79,6.83ZM75.19,91.81c.21-.21.48-.54.43-.72-.31-1.33-4.27-2-5.91-1.15-.92,2.19-.83,4.69.69,6.66l4.78-4.79Z"/>
      </g>
      <text class="st8" transform="translate(114.11 56.59)"><tspan x="0" y="0">HEART</tspan><tspan x="0" y="49.6">JEROME</tspan></text>
      <text class="st3" transform="translate(268.13 57.36)"><tspan x="0" y="0">of</tspan></text>
    </g>
    <g>
      <path class="st0" d="M704.21,672.12l1.42-1.52.97-1.03,1.08-1.15,2.53-2.68,1.92-2.09c-.46.03-.78.15-1.13.03-.15-.05-.34-.31-.33-.44.05-.55,1.07-.31,1.75-.75,2.34-1.49,1.45-3.28,2.46-3.29.41,0,.8,0,1.21.05.59.08.24,2.89,1.95,2.73,0-1.26-.02-2.48-.24-3.71-.06-.31-.54-.45-.78-.53l-2.24-.7c-.32-.1-.7-.1-1,.09l-1.88,1.19c-.35.22-.66.5-1,.77-.32.25-.64.62-.82.97-.47.9-1.2,1.28-2.04,1.71-2.15,1.12-4.59,1.17-6.68-.14-.18-.12-.52-.22-.68-.37-.73-.67-1.37-1.32-2.06-2.03-1.56-1.61-2.71-3.54-3.34-5.7-.27-.92-.38-1.83-.46-2.78-.11-1.31.08-2.56.44-3.84.87-3.14,2.97-5.86,5.9-7.31,2.09-1.03,4.36-1.48,6.65-1.14,3.81.56,7.02,2.92,8.67,6.37.99-2.2,3.15-4.45,5.34-5.38,1.14-.58,2.31-.85,3.58-1.02,3.55-.47,7.35,1.05,9.72,3.72,2.7,3.02,3.67,7.25,2.62,11.15-.68,2.53-2.1,4.6-3.92,6.43l-2.65,2.66-4.27,4.31-.95.97c1.31-.07,2.41.3,3.37,1.11.67.57,1.29,1.16,1.85,1.86.15.19.13.74,0,.92-.15.2-.29.4-.45.56l-2.87,2.88-1.73,1.72c-.31.31-.85.28-1.16-.04-.6-.62-1.16-1.23-1.71-1.9-.81-.98-1.08-2.28-.93-3.53l-5.53,5.65c-.27.28-.66.06-.87-.16l-3.06-3.16-2.93-2.99-1.13,1.15-2.66,2.77c-.38.4-.86.56-1.4.48-.45-.06-.9-.38-1.15-.84-.48-.91.02-1.45.61-2.07ZM726.01,648.67l-.9.94.96.95,3.06-3.1c.2-.2.52-.18.69.03.14.17.16.44-.04.64l-2.88,2.94c-.06.06-.04.3.03.36l.78.75,3.06-3.15c.18-.18.53-.1.66.07.14.18.16.47-.02.65l-3.03,3.1.94.95,2.99-3.07c.18-.18.46-.22.66-.09.15.1.29.45.12.62l-3.1,3.16c.3.38.62.71.97.98l3.02-3.09c.19-.19.49-.19.67-.05s.21.48.03.67l-2.4,2.44c-.57.58-1.08,1.17-1.69,1.68s-1.48.56-2.16.1c-.98-.66-1.8-1.72-2.82-2.56-.14-.12-.57.02-.69.15l-1.59,1.64-1.62,1.68-1.74,1.83,1.03.63c.55.34.8,1.01.75,1.64-.05.59-.46,1.07-1.04,1.44l3.77,3.89c.07.07.3.04.36-.02l2.82-2.85,1.37-1.39,2.21-2.24,2.4-2.43c1.97-1.99,3.25-4.53,3.53-7.34.22-2.18-.26-4.27-1.26-6.22-2.34-4.55-7.71-6.79-12.54-5.13-3.03,1.04-5.3,3.47-6.45,6.41-.08.22-.37.33-.52.28-.22-.07-.33-.22-.41-.44-.95-2.52-2.81-4.58-5.23-5.77-.93-.46-1.8-.75-2.82-.9-2.4-.35-4.8.08-6.87,1.34-4.17,2.53-6.15,7.54-4.86,12.26.49,1.8,1.33,3.46,2.56,4.86.8.92,1.61,1.74,2.56,2.51,1.42,1.14,3.29,1.58,5.05,1.07.79-.23,1.44-.68,2.15-1.06.27-.22.5-.45.71-.73.53-.9,1.28-1.57,2.21-2.13l-2.42-2.49-2.37,2.27c-.29.26-.71.34-.98.05l-2.11-2.28c-1.58-1.72-2.73-3.76-2.85-6.13-.07-1.48.12-2.88.56-4.28.07-.22.28-.41.49-.46,1.01-.27,1.99-.33,3-.3,2.53.08,4.68,1.13,6.42,2.96l2.5,2.63c.29.3.26.72-.03,1.02-.88.91-1.43,1.38-2.33,2.25.76.89,1.47,1.68,2.27,2.5.2.2.39.44.57.67,1.27.28,2.82.75,4.08,1.29.42-.39.81-.82,1.21-1.23l1.87-1.95,1.28-1.33c.33-.34.38-.85.03-1.2l-2.19-2.22c-.84-.85-.72-1.99.09-2.81l3.81-3.86c.19-.19.58-.05.69.12.12.18.07.44-.1.61l-2.97,3.04.96.94,2.88-3.03c.21-.22.51-.29.74-.11.14.11.3.44.12.63l-3.06,3.13c.28.35.57.65.92.97l3.08-3.15c.19-.19.58-.07.68.1.12.21.08.45-.1.63l-2.1,2.15ZM706.55,650.79c.31-.79,1.27-1,1.96-.64.51.27.92.71,1.32,1.12l.82.84c.45-.32.74-.64,1.1-1l1.1-1.09c-1.14-1.22-2.18-2.39-3.41-3.49-1.79-1.6-5.16-2.07-7.4-1.38-.92,3.02-.51,6.46,1.67,8.79l.89.96,1.54,1.65,1.07-1.07,1.09-1.12-1.44-1.61c-.42-.47-.58-1.33-.33-1.96ZM724.21,654.09c.64-.63,1.57-.62,2.21-.01l2.51,2.38c.31.3.95.07,1.22-.2.07-.07,0-.32-.08-.41l-8.77-8.77c-.31.15-.5.43-.54.65-.06.36.03.64.26.87l2.29,2.31c.66.67.64,1.67.04,2.34l-1.09,1.2.82.78,1.15-1.13ZM710.61,655.4l.98-.92-3.15-3.26c-.13-.14-.69-.48-.96-.22-.41.38.15,1.24.5,1.61l2.64,2.8ZM719.11,659.42l3.33-3.47-.87-.84-2.79,2.95c0,.46.08.97.33,1.36ZM712.23,656.99l1.05-.6-1.08-1.18-.78.76c-.08.07.08.34.15.41l.66.62ZM715.68,660.46l-.38-.37-.35.82.73-.45ZM719.95,662.69c.38.1.65-.17.76-.37.15-.28.1-.66-.14-.86-.49-.42-.98-.75-1.59-1.05-.02.59-.04,1.05,0,1.59.13.28.63.59.96.68ZM719.04,663.25c-.28-.23-.49-.37-.86-.32-1.13.15-1.74-.5-2.3-1.37-.2.19-.42.58-.25.85.25.4.64.67,1.02.95.65.48,1.26,1.01,1.96,1.4.41.22.81-.25.89-.54.13-.45-.12-.68-.47-.97ZM717.01,666.41c.42.07.73-.14.82-.42.13-.39-.04-.63-.33-.84l-2.25-1.65c-.12-.09-.37-.17-.49-.14-.45.12-.5.75-.32,1.11.55.52,1.14.94,1.72,1.42.25.21.52.46.86.52ZM706.32,673.02l1.36-1.45,4.64-4.9c-.17-.52-.32-1.01-.09-1.5s.7-.76,1.24-.93c0-.19-.03-.39-.07-.58l-.75.78-3.53,3.82-3.94,4.19c-.3.32-.73.7-.8,1.12-.07.44.66.62.96.39.36-.26.65-.59.98-.94ZM721.33,667.37l.84-.88-1.81-1.92c-.2.43-.39.67-.81.93l1.77,1.87ZM715.66,666.73l-1.57-1.31c-.28-.23-.61-.26-.91-.02-.2.16-.27.65-.02.9.54.53,1.14,1.04,1.78,1.45.3.2.74.08.9-.21.13-.23.09-.58-.18-.8ZM716.44,675.89l3.43-3.47,1.35-1.34.86-.91c.13-.14.23-.39.07-.56l-3.29-3.5c-.33.88-1.09,1.35-2.04,1.24-.06.52-.28.96-.65,1.19-.43.26-.91.35-1.4.19-.27-.09-.51-.02-.78.03-.75.15-1.5.09-2.24-.05l-1.14,1.19,5.83,5.98ZM728.39,673.16l1.85-1.89c-.04-.31-.28-.54-.48-.75-.49-.5-.94-1.01-1.54-1.36-.81-.47-1.73-.57-2.67-.53-1.4.06-1.73-.52-2.69-1.43l-.88.86,1.01,1.2c.37.44.34,1.07.28,1.63-.36,2.47.58,3.53,2.36,5.06l2.76-2.79ZM713.69,667.93l-.78-.59-.43.54,1.21.05Z"/>
      <path class="st0" d="M725.79,674.49c-.18.18-.41.17-.61,0-1.28-1.09-1.58-3.15-.71-4.52.41-.65,3.07-1.05,4.4.77.22.29.13.53-.11.76l-2.98,2.99ZM727.57,671.34c.09-.09.21-.24.19-.32-.14-.58-1.87-.88-2.59-.5-.4.96-.36,2.05.3,2.92l2.09-2.1Z"/>
    </g>
    <path class="st12" d="M1098.91,272.03h-.03c-1.7,0-3.29-.67-4.48-1.87-1.19-1.2-1.84-2.79-1.83-4.49,0-1.7.67-3.29,1.87-4.48l5-4.96c1.19-1.18,2.78-1.83,4.47-1.83,0,0,.02,0,.03,0,1.7,0,3.29.67,4.48,1.87,1.19,1.2,1.84,2.79,1.83,4.49,0,1.7-.67,3.29-1.87,4.48l-5,4.96c-1.19,1.18-2.78,1.83-4.47,1.83ZM1103.91,255.34c-1.44,0-2.79.55-3.8,1.56l-5,4.96c-1.02,1.01-1.58,2.37-1.59,3.81,0,1.45.55,2.81,1.56,3.83,1.01,1.02,2.37,1.58,3.81,1.59,0,0,.01,0,.02,0,1.44,0,2.79-.55,3.8-1.56l5-4.96c1.02-1.01,1.58-2.37,1.59-3.81,0-1.45-.55-2.81-1.56-3.83-1.01-1.02-2.37-1.58-3.81-1.59h-.02Z"/>
    <path class="st12" d="M1107.18,280.37h-.03c-1.7,0-3.29-.67-4.48-1.87-1.19-1.2-1.84-2.79-1.83-4.49,0-1.7.67-3.29,1.87-4.48l5-4.96c1.19-1.18,2.78-1.83,4.47-1.83h.03c1.7,0,3.29.67,4.48,1.87,1.19,1.2,1.84,2.79,1.83,4.49,0,1.7-.67,3.29-1.87,4.48l-5,4.96c-1.19,1.18-2.78,1.83-4.47,1.83ZM1112.18,263.68c-1.44,0-2.79.55-3.8,1.56l-5,4.96c-1.02,1.01-1.58,2.37-1.59,3.81,0,1.45.55,2.81,1.56,3.83,1.01,1.02,2.37,1.58,3.81,1.59,1.45.01,2.81-.55,3.83-1.56l5-4.96c1.02-1.01,1.58-2.37,1.59-3.81,0-1.45-.55-2.81-1.56-3.83-1.01-1.02-2.37-1.58-3.81-1.59,0,0-.01,0-.02,0Z"/>
    <path class="st12" d="M1115.45,288.7h-.03c-1.7,0-3.29-.67-4.48-1.87-1.19-1.2-1.84-2.79-1.83-4.49,0-1.7.67-3.29,1.87-4.48l5-4.96c1.2-1.19,2.8-1.84,4.49-1.83,1.7,0,3.29.67,4.48,1.87,1.19,1.2,1.84,2.79,1.83,4.49,0,1.7-.67,3.29-1.87,4.48l-5,4.96c-1.19,1.18-2.78,1.83-4.47,1.83ZM1120.45,272.01c-1.44,0-2.79.55-3.8,1.56l-5,4.96c-1.02,1.01-1.58,2.37-1.59,3.81,0,1.45.55,2.81,1.56,3.83,1.01,1.02,2.37,1.58,3.81,1.59,0,0,.01,0,.02,0,1.44,0,2.79-.55,3.8-1.56l5-4.96c1.02-1.01,1.58-2.37,1.59-3.81,0-1.45-.55-2.81-1.56-3.83-1.01-1.02-2.37-1.58-3.81-1.59,0,0-.01,0-.02,0Z"/>
    <path class="st12" d="M1123.72,297.04h-.03c-1.7,0-3.29-.67-4.48-1.87-1.19-1.2-1.84-2.79-1.83-4.49,0-1.7.67-3.29,1.87-4.48l5-4.96c1.19-1.18,2.78-1.83,4.47-1.83h.03c1.7,0,3.29.67,4.48,1.87,1.19,1.2,1.84,2.79,1.83,4.49,0,1.7-.67,3.29-1.87,4.48l-5,4.96c-1.19,1.18-2.78,1.83-4.47,1.83ZM1128.72,280.35c-1.44,0-2.79.55-3.8,1.56l-5,4.96c-1.02,1.01-1.58,2.37-1.59,3.81,0,1.45.55,2.81,1.56,3.83,1.01,1.02,2.37,1.58,3.81,1.59,0,0,.01,0,.02,0,1.44,0,2.79-.55,3.8-1.56l5-4.96c1.02-1.01,1.58-2.37,1.59-3.81,0-1.45-.55-2.81-1.56-3.83-1.01-1.02-2.37-1.58-3.81-1.59,0,0-.01,0-.02,0Z"/>
    <path class="st12" d="M1106.92,246.02c-.12,0-.24-.05-.33-.14-.18-.18-.18-.48,0-.66l18.27-18.27c.18-.18.48-.18.66,0,.18.18.18.48,0,.66l-18.27,18.27c-.09.09-.21.14-.33.14Z"/>
    <path class="st12" d="M1125.18,244.36c-.12,0-.24-.05-.33-.14-.18-.18-.18-.48,0-.66l8.3-8.3c.18-.18.48-.18.66,0,.18.18.18.48,0,.66l-8.3,8.3c-.09.09-.21.14-.33.14Z"/>
    <path class="st12" d="M1114.92,248.31c-2.91,0-5.74-.8-8.25-2.36-.22-.14-.29-.43-.15-.65.14-.22.43-.29.65-.15,5.57,3.45,12.85,2.78,17.7-1.61.19-.17.49-.16.66.03.17.19.16.49-.03.66-2.55,2.31-5.71,3.69-9.13,4-.49.04-.97.07-1.45.07Z"/>
    <path class="st13" d="M1105.54,267.38l2.5-2.48c1.15-1.14,1.72-2.64,1.73-4.14,0-1.5-.56-3.01-1.7-4.16-1.14-1.15-2.64-1.72-4.14-1.73-1.5,0-3.01.56-4.16,1.7l-2.5,2.48-2.5,2.48c-1.15,1.14-1.72,2.64-1.73,4.14,0,1.5.56,3.01,1.7,4.16,1.14,1.15,2.64,1.72,4.14,1.73,1.5,0,3.01-.56,4.16-1.7l2.5-2.48Z"/>
    <path class="st12" d="M1098.91,272.03h-.03c-1.7,0-3.29-.67-4.48-1.87-1.19-1.2-1.84-2.79-1.83-4.49,0-1.7.67-3.29,1.87-4.48l5-4.96c1.19-1.18,2.78-1.83,4.47-1.83,0,0,.02,0,.03,0,1.7,0,3.29.67,4.48,1.87,1.19,1.2,1.84,2.79,1.83,4.49,0,1.7-.67,3.29-1.87,4.48l-5,4.96c-1.19,1.18-2.78,1.83-4.47,1.83ZM1103.91,255.34c-1.44,0-2.79.55-3.8,1.56l-5,4.96c-1.02,1.01-1.58,2.37-1.59,3.81,0,1.45.55,2.81,1.56,3.83,1.01,1.02,2.37,1.58,3.81,1.59,0,0,.01,0,.02,0,1.44,0,2.79-.55,3.8-1.56l5-4.96c1.02-1.01,1.58-2.37,1.59-3.81,0-1.45-.55-2.81-1.56-3.83-1.01-1.02-2.37-1.58-3.81-1.59h-.02Z"/>
    <path class="st13" d="M1103.04,269.86c-1.15,1.14-1.72,2.64-1.73,4.14,0,1.5.56,3.01,1.7,4.16,1.14,1.15,2.64,1.72,4.14,1.73,1.5,0,3.01-.56,4.16-1.7l2.5-2.48,2.5-2.48c1.15-1.14,1.72-2.64,1.73-4.14,0-1.5-.56-3.01-1.7-4.16-1.14-1.15-2.64-1.72-4.14-1.73-1.5,0-3.01.56-4.16,1.7l-2.5,2.48-2.5,2.48Z"/>
    <path class="st12" d="M1107.18,280.37h-.03c-1.7,0-3.29-.67-4.48-1.87-1.19-1.2-1.84-2.79-1.83-4.49,0-1.7.67-3.29,1.87-4.48h0l5-4.96c1.2-1.19,2.79-1.84,4.49-1.83,1.7,0,3.29.67,4.48,1.87,1.19,1.2,1.84,2.79,1.83,4.49,0,1.7-.67,3.29-1.87,4.48l-5,4.96c-1.19,1.18-2.78,1.83-4.47,1.83ZM1103.37,270.2c-1.02,1.01-1.58,2.37-1.59,3.81,0,1.45.55,2.81,1.56,3.83,1.01,1.02,2.37,1.58,3.81,1.59,1.45.01,2.81-.55,3.83-1.56l5-4.96c1.02-1.01,1.58-2.37,1.59-3.81,0-1.45-.55-2.81-1.56-3.83-1.01-1.02-2.37-1.58-3.81-1.59,0,0-.01,0-.02,0-1.44,0-2.79.55-3.8,1.56l-5,4.96Z"/>
    <path class="st13" d="M1113.81,275.72l-2.5,2.48c-1.15,1.14-1.72,2.64-1.73,4.14,0,1.5.56,3.01,1.7,4.16,1.14,1.15,2.64,1.72,4.14,1.73,1.5,0,3.01-.56,4.16-1.7l2.5-2.48,2.5-2.48c1.15-1.14,1.72-2.64,1.73-4.14,0-1.5-.56-3.01-1.7-4.16-1.14-1.15-2.64-1.72-4.14-1.73-1.5,0-3.01.56-4.16,1.7l-2.5,2.48Z"/>
    <path class="st12" d="M1115.45,288.7h-.03c-1.7,0-3.29-.67-4.48-1.87-1.19-1.2-1.84-2.79-1.83-4.49,0-1.7.67-3.29,1.87-4.48l2.5-2.48h0l2.5-2.48c1.2-1.19,2.8-1.84,4.49-1.83,1.7,0,3.29.67,4.48,1.87,1.19,1.2,1.84,2.79,1.83,4.49,0,1.7-.67,3.29-1.87,4.48l-5,4.96c-1.19,1.18-2.78,1.83-4.47,1.83ZM1114.14,276.05l-2.5,2.48c-1.02,1.01-1.58,2.37-1.59,3.81,0,1.45.55,2.81,1.56,3.83,1.01,1.02,2.37,1.58,3.81,1.59,0,0,.01,0,.02,0,1.44,0,2.79-.55,3.8-1.56l5-4.96c1.02-1.01,1.58-2.37,1.59-3.81,0-1.45-.55-2.81-1.56-3.83-1.01-1.02-2.37-1.58-3.81-1.59,0,0-.01,0-.02,0-1.44,0-2.79.55-3.8,1.56l-2.5,2.48Z"/>
    <path class="st13" d="M1119.58,286.53c-1.15,1.14-1.72,2.64-1.73,4.14,0,1.5.56,3.01,1.7,4.16,1.14,1.15,2.64,1.72,4.14,1.73,1.5,0,3.01-.56,4.16-1.7l2.5-2.48,2.5-2.48c1.1-1.09,1.68-2.52,1.73-3.97,0-.06,0-.12,0-.17,0-1.5-.56-3.01-1.7-4.16-.47-.48-1.01-.85-1.58-1.13-.81-.39-1.68-.59-2.56-.59-1.5,0-3.01.56-4.16,1.7l-2.5,2.48-2.5,2.48Z"/>
    <path class="st12" d="M1123.72,297.04h-.03c-1.7,0-3.29-.67-4.48-1.87-1.19-1.2-1.84-2.79-1.83-4.49,0-1.7.67-3.29,1.87-4.48l5-4.96c1.19-1.18,2.78-1.83,4.47-1.83h.03c.96,0,1.91.23,2.77.64.63.31,1.21.72,1.71,1.23,1.19,1.2,1.84,2.79,1.83,4.49,0,.06,0,.12,0,.19-.05,1.63-.72,3.15-1.86,4.29l-5,4.96c-1.19,1.18-2.78,1.83-4.47,1.83ZM1128.72,280.35c-1.44,0-2.79.55-3.8,1.56l-5,4.96h0c-1.02,1.01-1.58,2.37-1.59,3.81,0,1.45.55,2.81,1.56,3.83,1.01,1.02,2.37,1.58,3.81,1.59,0,0,.01,0,.02,0,1.44,0,2.79-.55,3.8-1.56l5-4.96c.98-.97,1.54-2.27,1.59-3.65,0-.05,0-.11,0-.16,0-1.45-.55-2.81-1.56-3.82-.43-.43-.91-.78-1.45-1.04-.73-.35-1.54-.54-2.36-.55,0,0-.01,0-.02,0ZM1119.58,286.53h0,0Z"/>
    <path class="st13" d="M1133.45,235.62l20.01,20.17,3.91,3.94.02.02s0,0,0,0c1.12,1.14,1.68,2.64,1.67,4.14l1.22-1.21,3.12-3.1c9.73-9.66,9.79-25.52.14-35.25-9.66-9.73-25.52-9.79-35.25-.14l-3.12,3.1-18.27,18.27c5.78,3.58,13.23,2.9,18.27-1.66l8.27-8.27Z"/>
    <path class="st12" d="M1159.07,264.36c-.06,0-.12-.01-.18-.04-.18-.07-.29-.24-.29-.43,0-1.43-.54-2.78-1.53-3.8,0,0,0,0,0,0l-.02-.02-23.59-23.77-7.94,7.94s-.01.01-.02.02c-2.55,2.31-5.71,3.69-9.13,4-3.42.31-6.78-.48-9.7-2.29-.12-.08-.2-.2-.22-.35-.02-.14.03-.28.13-.39l18.27-18.27,3.12-3.1c4.8-4.76,11.19-7.37,17.99-7.34,6.8.03,13.17,2.68,17.93,7.48,4.76,4.8,7.37,11.18,7.34,17.99-.03,6.8-2.68,13.17-7.48,17.93l-4.35,4.31c-.09.09-.21.14-.33.14ZM1157.73,259.42s0,0,0,0c.93.94,1.52,2.13,1.73,3.42l3.63-3.6c9.57-9.5,9.63-25.02.13-34.59-4.58-4.62-10.71-7.17-17.27-7.2-.03,0-.07,0-.1,0-6.52,0-12.63,2.51-17.22,7.07l-3.12,3.1-17.84,17.84c5.49,3.1,12.47,2.35,17.18-1.9l8.26-8.26c.09-.09.21-.14.33-.14h0c.12,0,.24.05.33.14l23.94,24.13Z"/>
    <path class="st7" d="M1106.92,245.55l18.27-18.27-3.1-3.12c-9.66-9.73-25.52-9.79-35.25-.14-9.73,9.66-9.79,25.52-.14,35.25l6.35,6.4c0-1.5.58-3.01,1.73-4.14l2.5-2.48,2.5-2.48c1.15-1.14,2.65-1.7,4.16-1.7,1.5,0,3.01.58,4.14,1.73,1.14,1.15,1.7,2.65,1.7,4.16,0,1.5-.58,3.01-1.73,4.14,1.15-1.14,2.65-1.7,4.16-1.7,1.5,0,3.01.58,4.14,1.73,1.14,1.15,1.7,2.65,1.7,4.16,0,1.5-.58,3.01-1.73,4.14,1.15-1.14,2.65-1.7,4.16-1.7,1.5,0,3.01.58,4.14,1.73,1.14,1.15,1.7,2.65,1.7,4.16,0,1.5-.58,3.01-1.73,4.14,1.15-1.14,2.65-1.7,4.16-1.7.88,0,1.76.2,2.56.59.57.28,1.11.66,1.58,1.13,1.14,1.15,1.7,2.65,1.7,4.16,0,.06,0,.12,0,.17.63.22,1.28.33,1.94.33h0c1.5,0,3.01-.56,4.16-1.7,1.15-1.14,1.72-2.64,1.73-4.14h0c0-1.5-.56-3.01-1.7-4.16,1.14,1.15,2.64,1.72,4.14,1.73h0c1.5,0,3.01-.56,4.16-1.7,1.15-1.14,1.72-2.64,1.73-4.14h0c0-1.5-.56-3.01-1.7-4.16,1.14,1.15,2.64,1.72,4.14,1.73,1.5,0,3.01-.56,4.16-1.7,1.15-1.14,1.72-2.64,1.73-4.14,0-1.5-.55-3-1.68-4.14l-.02-.02-3.91-3.94-20.01-20.17-8.27,8.27c-5.04,4.56-12.49,5.24-18.27,1.66Z"/>
    <path class="st12" d="M1136.54,286.74h-.03c-.72,0-1.42-.12-2.09-.36-.19-.07-.32-.25-.31-.46,0-.05,0-.11,0-.16,0-1.45-.55-2.81-1.56-3.82-.43-.43-.91-.78-1.45-1.04-.73-.35-1.54-.54-2.36-.55,0,0-.01,0-.02,0-1.44,0-2.79.55-3.8,1.56-.18.18-.48.18-.66,0-.09-.09-.14-.21-.14-.33,0-.12.05-.24.14-.33,1.02-1.01,1.58-2.37,1.59-3.81,0-1.45-.55-2.81-1.56-3.83-1.01-1.02-2.37-1.58-3.81-1.59-1.45,0-2.81.55-3.83,1.56-.18.18-.48.18-.66,0-.09-.09-.14-.21-.14-.33,0-.12.05-.24.14-.33,1.02-1.01,1.58-2.37,1.59-3.81,0-1.45-.55-2.81-1.56-3.83-1.01-1.02-2.37-1.58-3.81-1.59,0,0-.01,0-.02,0-1.44,0-2.79.55-3.8,1.56-.18.18-.48.18-.66,0-.09-.09-.14-.21-.14-.33,0-.12.05-.24.14-.33,1.02-1.01,1.58-2.37,1.59-3.81,0-1.45-.55-2.81-1.56-3.83-1.01-1.02-2.37-1.58-3.81-1.59h-.02c-1.44,0-2.79.55-3.8,1.56l-5,4.96c-1.02,1.01-1.58,2.37-1.59,3.81,0,.19-.12.36-.29.43-.18.07-.38.03-.51-.1l-6.35-6.4c-4.76-4.8-7.37-11.18-7.34-17.99.03-6.8,2.68-13.17,7.48-17.93,4.8-4.76,11.18-7.37,17.99-7.34,6.8.03,13.17,2.68,17.93,7.48l3.1,3.12c.18.18.18.48,0,.66l-17.84,17.84c5.49,3.1,12.47,2.35,17.18-1.9l8.26-8.26c.09-.09.21-.14.33-.14h0c.12,0,.24.05.33.14l23.94,24.13c1.18,1.19,1.82,2.78,1.81,4.47,0,1.7-.67,3.29-1.87,4.48-1.19,1.18-2.78,1.83-4.47,1.83h-.03c-.86,0-1.69-.17-2.46-.5.32.77.48,1.6.48,2.46,0,1.7-.67,3.29-1.87,4.48-1.19,1.18-2.78,1.83-4.47,1.83h-.03c-.86,0-1.69-.17-2.46-.5.32.77.48,1.6.48,2.46,0,1.7-.67,3.29-1.87,4.48-1.19,1.18-2.78,1.83-4.47,1.83ZM1135.05,285.59c.48.14.97.21,1.47.21,0,0,.01,0,.02,0,1.44,0,2.79-.55,3.8-1.56,1.02-1.01,1.58-2.37,1.59-3.81,0-1.45-.55-2.81-1.56-3.83-.09-.09-.14-.21-.14-.33,0-.12.05-.24.14-.33.18-.18.48-.18.66,0,1.01,1.02,2.37,1.58,3.81,1.59,0,0,.01,0,.02,0,1.44,0,2.79-.55,3.8-1.56,1.02-1.01,1.58-2.37,1.59-3.81,0-1.45-.55-2.81-1.56-3.83-.09-.09-.14-.21-.14-.33,0-.12.05-.24.14-.33.18-.18.48-.18.66,0,1.01,1.02,2.37,1.58,3.81,1.59,0,0,.01,0,.02,0,1.44,0,2.79-.55,3.8-1.56,1.02-1.01,1.58-2.37,1.59-3.81,0-1.44-.54-2.79-1.54-3.81l-.02-.02-23.59-23.77-7.94,7.94s-.01.01-.02.02c-2.55,2.31-5.71,3.69-9.13,4-3.42.31-6.78-.48-9.7-2.29-.12-.08-.2-.2-.22-.35-.02-.14.03-.28.13-.39l17.94-17.94-2.77-2.79c-9.5-9.57-25.02-9.63-34.59-.13-4.62,4.58-7.17,10.71-7.2,17.27-.03,6.55,2.48,12.7,7.07,17.32l5.63,5.68c.22-1.3.83-2.49,1.78-3.43l5-4.96c1.2-1.19,2.79-1.84,4.49-1.83,1.7,0,3.29.67,4.48,1.87,1.19,1.2,1.84,2.79,1.83,4.49,0,.86-.17,1.69-.5,2.46.76-.31,1.58-.48,2.43-.48h.03c1.7,0,3.29.67,4.48,1.87,1.19,1.2,1.84,2.79,1.83,4.49,0,.86-.17,1.69-.5,2.46.77-.32,1.61-.48,2.46-.48,1.7,0,3.29.67,4.48,1.87,1.19,1.2,1.84,2.79,1.83,4.49,0,.86-.17,1.69-.5,2.46.76-.31,1.58-.48,2.43-.48h.03c.96,0,1.91.23,2.77.64.64.31,1.21.72,1.71,1.23,1.15,1.16,1.79,2.69,1.83,4.32Z"/>
    <path class="st12" d="M1149.04,268.47c-.12,0-.24-.05-.33-.14l-13.28-13.28c-.18-.18-.18-.48,0-.66.18-.18.48-.18.66,0l13.28,13.28c.18.18.18.48,0,.66-.09.09-.21.14-.33.14Z"/>
    <path class="st12" d="M1140.71,276.74c-.12,0-.24-.05-.33-.14l-13.28-13.28c-.18-.18-.18-.48,0-.66.18-.18.48-.18.66,0l13.28,13.28c.18.18.18.48,0,.66-.09.09-.21.14-.33.14Z"/>
    <g>
      <path class="st6" d="M739.79,527.4l-2.04,2.02c0-.07.02-.15.02-.23,0-.35-.43-.34-.53-.67l1.85-1.83c4.66-4.63,4.69-12.2.06-16.87-4.63-4.66-12.19-4.69-16.86-.06l-10.19,10.18,8.98-8.99-.69-.7,1.19-1.2c5.06-5.02,13.26-4.99,18.28.07,5.02,5.06,4.99,13.26-.07,18.28Z"/>
      <path class="st4" d="M737.8,529.66c0,.08-.01.16-.02.23-.06.83-.4,1.61-.99,2.19-.64.64-1.5.99-2.41.99-.26.01-.56-.03-.83-.09.07.26.1.53.1.81-.01.91-.36,1.77-1.01,2.42-.65.64-1.49.99-2.43.99-.28,0-.55-.04-.81-.1.06.26.09.53.09.81,0,.92-.36,1.78-1.01,2.42-.64.64-1.5.99-2.41.99h-.01c-.26,0-.51-.04-.76-.1.05-.21.07-.43.07-.65,0-.13-.02-.25-.03-.37.08.02.15.04.24.05v.02c.16.03.32.05.49.05.65,0,1.25-.25,1.71-.7.46-.46.71-1.07.71-1.72.01-.65-.24-1.26-.7-1.71l.02-.02-6.62-6.62c-.19-.18-.19-.49,0-.68s.49-.19.68,0l6.62,6.62h.01c.46.45,1.06.7,1.72.71.65,0,1.26-.25,1.71-.7.46-.46.71-1.07.72-1.72,0-.65-.25-1.26-.7-1.72h.01s-6.62-6.63-6.62-6.63c-.19-.19-.19-.49,0-.68s.5-.19.68,0l6.63,6.63v-.02c.46.46,1.07.71,1.72.71h.01c.65,0,1.25-.25,1.71-.7.46-.45.71-1.06.71-1.71s-.24-1.25-.69-1.71l-11.58-11.67-.71-.7.71-.72,12.28,12.38c.39.4.66.88.82,1.39.11.33.17.68.17,1.03Z"/>
      <path class="st4" d="M720.35,510.5l-1.37-1.38c-5.02-5.06-13.22-5.09-18.28-.07s-5.09,13.22-.07,18.28l3.33,3.36c-.02-.18-.04-.35-.04-.53,0-.28.05-.55.12-.81-.11-.1-.21-.21-.31-.33l-2.38-2.4c-4.63-4.67-4.6-12.23.07-16.86,4.66-4.63,12.23-4.6,16.86.06l1.37,1.39"/>
      <path class="st6" d="M724.99,515.32l-4.26,4.26c-2.68,2.42-6.66,2.79-9.72.9l-.53-.33,9.91-9.9.69.7-8.98,8.99c2.59,1.29,5.77.88,7.94-1.09l4.25-4.24.7.71Z"/>
    </g>
  </g>
  <g id="Layer_2">
    <rect class="st5" x="703.72" y="526.15" width="9.45" height="5.51" rx="2.72" ry="2.72" transform="translate(-166.49 655.86) rotate(-45)"/>
    <rect class="st5" x="707.74" y="530.26" width="9.45" height="5.51" rx="2.72" ry="2.72" transform="translate(-168.22 659.91) rotate(-45)"/>
    <rect class="st5" x="712.08" y="534.4" width="9.45" height="5.51" rx="2.72" ry="2.72" transform="translate(-169.88 664.19) rotate(-45)"/>
    <rect class="st5" x="716.32" y="538.65" width="9.45" height="5.51" rx="2.72" ry="2.72" transform="translate(-171.64 668.43) rotate(-45)"/>
  </g>
</svg>