<?xml version="1.0" encoding="UTF-8"?>
<svg id="Layer_1" data-name="Layer 1" xmlns="http://www.w3.org/2000/svg" viewBox="0 0 306.2 94.11">
  <defs>
    <style>
      .cls-1 {
        fill: none;
      }

      .cls-2, .cls-3 {
        fill: #e82025;
      }

      .cls-3 {
        stroke: #e82025;
        stroke-miterlimit: 10;
        stroke-width: .75px;
      }

      .cls-4 {
        fill: #231f20;
      }
    </style>
  </defs>
  <g>
    <path class="cls-3" d="M21.84,79.5l3.25-3.46,2.22-2.36,2.46-2.61,5.78-6.11,4.39-4.76c-1.05.06-1.78.33-2.57.08-.34-.11-.77-.71-.74-1,.11-1.25,2.43-.72,3.99-1.72,5.33-3.41,3.31-7.48,5.63-7.52.94-.02,1.83,0,2.77.12,1.35.18.54,6.59,4.44,6.23,0-2.87-.04-5.65-.55-8.46-.13-.7-1.24-1.03-1.79-1.2l-5.1-1.61c-.73-.23-1.6-.22-2.28.21l-4.29,2.71c-.81.51-1.51,1.14-2.28,1.75-.73.57-1.46,1.42-1.87,2.21-1.06,2.06-2.75,2.92-4.65,3.91-4.9,2.55-10.49,2.68-15.26-.33-.42-.26-1.18-.5-1.56-.85-1.66-1.54-3.12-3.01-4.7-4.64-3.57-3.67-6.18-8.07-7.62-13.01-.62-2.11-.86-4.18-1.05-6.36-.25-2.99.19-5.84,1-8.76,1.99-7.17,6.78-13.38,13.46-16.69,4.78-2.36,9.95-3.37,15.18-2.6,8.7,1.28,16.03,6.67,19.79,14.54,2.27-5.03,7.19-10.15,12.19-12.28,2.6-1.33,5.28-1.94,8.17-2.33,8.11-1.08,16.78,2.41,22.2,8.49,6.15,6.9,8.38,16.55,5.98,25.46-1.55,5.79-4.8,10.51-8.96,14.69l-6.04,6.08-9.74,9.84-2.18,2.22c2.99-.15,5.5.69,7.69,2.54,1.54,1.3,2.94,2.64,4.21,4.26.34.44.3,1.68,0,2.1-.33.45-.65.91-1.02,1.27l-6.56,6.56-3.96,3.94c-.72.71-1.94.63-2.64-.09-1.37-1.41-2.65-2.82-3.9-4.33-1.85-2.25-2.47-5.21-2.11-8.05l-12.62,12.89c-.62.63-1.51.14-1.99-.36l-6.98-7.21-6.68-6.82-2.58,2.64-6.07,6.33c-.86.9-1.96,1.27-3.19,1.1-1.02-.14-2.06-.87-2.62-1.91-1.11-2.08.04-3.31,1.38-4.73ZM71.62,25.96l-2.06,2.15,2.19,2.18,6.99-7.07c.46-.46,1.18-.41,1.58.06.33.38.36,1-.09,1.46l-6.57,6.71c-.14.15-.08.68.06.81l1.78,1.72,6.99-7.19c.41-.42,1.2-.24,1.5.15.31.41.36,1.07-.05,1.49l-6.93,7.07,2.14,2.16,6.82-7.02c.4-.41,1.06-.5,1.51-.2.34.22.66,1.03.27,1.42l-7.08,7.21c.69.87,1.41,1.61,2.22,2.23l6.89-7.05c.42-.43,1.13-.44,1.53-.1s.49,1.09.07,1.52l-5.47,5.58c-1.29,1.32-2.46,2.67-3.87,3.84s-3.38,1.28-4.94.23c-2.24-1.5-4.11-3.92-6.45-5.85-.32-.26-1.3.04-1.59.34l-3.62,3.74-3.71,3.83-3.98,4.18,2.35,1.45c1.26.78,1.83,2.3,1.71,3.74-.12,1.35-1.05,2.45-2.37,3.28l8.6,8.89c.16.16.68.1.83-.05l6.43-6.52,3.14-3.18,5.04-5.1,5.48-5.55c4.5-4.55,7.41-10.35,8.07-16.76.51-4.97-.6-9.75-2.88-14.19-5.35-10.4-17.6-15.5-28.63-11.71-6.92,2.37-12.1,7.91-14.72,14.63-.19.49-.84.76-1.2.64-.49-.17-.75-.51-.94-1.01-2.17-5.76-6.43-10.46-11.94-13.16-2.12-1.04-4.1-1.71-6.43-2.05-5.47-.79-10.96.18-15.69,3.06C5.11,13.74.59,25.18,3.53,35.93c1.12,4.11,3.03,7.89,5.84,11.1,1.84,2.09,3.67,3.98,5.83,5.72,3.23,2.61,7.52,3.62,11.53,2.45,1.8-.53,3.29-1.55,4.9-2.42.62-.5,1.14-1.03,1.63-1.66,1.22-2.05,2.91-3.59,5.04-4.87l-5.53-5.69-5.41,5.17c-.66.58-1.62.79-2.25.11l-4.82-5.21c-3.62-3.92-6.24-8.58-6.5-14.01-.16-3.37.27-6.59,1.28-9.77.16-.5.65-.93,1.12-1.06,2.3-.63,4.54-.75,6.85-.68,5.77.17,10.7,2.59,14.66,6.76l5.7,5.99c.65.69.6,1.64-.06,2.33-2,2.08-3.27,3.14-5.31,5.14,1.73,2.03,3.36,3.84,5.17,5.7.45.47.88,1.01,1.29,1.53,2.89.65,6.45,1.71,9.3,2.95.96-.89,1.85-1.87,2.76-2.82l4.28-4.46,2.91-3.04c.75-.79.87-1.93.06-2.75l-5.01-5.07c-1.91-1.93-1.65-4.54.19-6.41l8.7-8.81c.43-.43,1.32-.11,1.56.27.26.41.16,1-.23,1.39l-6.78,6.94,2.18,2.14,6.57-6.91c.49-.51,1.17-.67,1.69-.24.31.26.68,1,.26,1.43l-7,7.15c.64.8,1.29,1.49,2.09,2.21l7.02-7.2c.43-.44,1.32-.16,1.55.23.28.47.18,1.04-.22,1.45l-4.8,4.9ZM27.18,30.79c.71-1.8,2.91-2.28,4.47-1.45,1.17.62,2.1,1.61,3.02,2.56l1.87,1.91c1.02-.74,1.69-1.47,2.52-2.29l2.51-2.49c-2.6-2.78-4.98-5.46-7.78-7.97-4.09-3.66-11.78-4.72-16.89-3.15-2.1,6.91-1.16,14.76,3.8,20.07l2.04,2.18,3.52,3.78,2.45-2.45,2.49-2.55-3.29-3.68c-.97-1.08-1.31-3.05-.75-4.47ZM67.52,38.34c1.45-1.43,3.59-1.42,5.05-.03l5.73,5.42c.71.67,2.17.15,2.79-.45.17-.17,0-.74-.19-.94l-20.03-20.02c-.71.34-1.15.98-1.24,1.49-.15.82.06,1.45.59,1.99l5.23,5.26c1.51,1.52,1.47,3.82.08,5.34l-2.49,2.73,1.86,1.78,2.62-2.59ZM36.47,41.32l2.23-2.1-7.2-7.45c-.3-.31-1.59-1.09-2.2-.51-.93.87.34,2.82,1.13,3.67l6.04,6.4ZM55.87,50.51l7.6-7.93-1.98-1.92-6.38,6.75c0,1.05.18,2.21.76,3.11ZM40.15,44.95l2.39-1.36-2.46-2.7-1.78,1.73c-.18.17.17.78.33.93l1.52,1.41ZM48.03,52.87l-.87-.84-.79,1.86,1.66-1.02ZM57.8,57.97c.86.24,1.49-.38,1.73-.84.34-.64.23-1.5-.31-1.97-1.11-.96-2.24-1.71-3.62-2.4-.04,1.35-.1,2.4.01,3.64.3.65,1.45,1.35,2.2,1.56ZM55.72,59.25c-.63-.52-1.11-.85-1.95-.74-2.58.34-3.98-1.15-5.24-3.12-.45.44-.96,1.32-.56,1.95.57.91,1.46,1.53,2.32,2.17,1.47,1.09,2.88,2.31,4.47,3.19.93.51,1.85-.56,2.04-1.23.29-1.03-.28-1.56-1.07-2.22ZM51.08,66.46c.96.17,1.66-.33,1.86-.95.29-.88-.09-1.44-.76-1.93l-5.14-3.78c-.28-.2-.84-.4-1.11-.33-1.02.27-1.14,1.71-.74,2.54,1.26,1.18,2.59,2.16,3.92,3.24.58.47,1.18,1.06,1.97,1.2ZM26.68,81.55l3.1-3.31,10.6-11.19c-.39-1.19-.73-2.32-.21-3.42s1.6-1.73,2.84-2.13c-.02-.43-.08-.89-.16-1.33l-1.72,1.78-8.06,8.72-9,9.57c-.69.73-1.67,1.59-1.82,2.55-.15,1.01,1.5,1.4,2.19.89.81-.6,1.48-1.35,2.23-2.15ZM60.94,68.65l1.92-2.01-4.12-4.38c-.45.98-.89,1.54-1.84,2.11l4.05,4.27ZM47.99,67.2l-3.58-3c-.64-.54-1.39-.6-2.07-.05-.45.36-.62,1.48-.05,2.05,1.23,1.22,2.6,2.37,4.05,3.32.7.45,1.68.19,2.06-.48.3-.53.21-1.32-.41-1.84ZM49.76,88.1l7.83-7.93,3.07-3.05,1.97-2.07c.3-.31.53-.89.16-1.27l-7.52-7.98c-.76,2.02-2.49,3.09-4.65,2.84-.14,1.19-.63,2.2-1.48,2.72-.98.6-2.08.79-3.2.43-.61-.2-1.17-.06-1.79.07-1.71.34-3.42.2-5.12-.12l-2.6,2.72,13.32,13.66ZM77.07,81.87l4.23-4.31c-.09-.71-.63-1.24-1.1-1.72-1.12-1.14-2.14-2.3-3.52-3.11-1.85-1.08-3.94-1.31-6.09-1.22-3.2.13-3.94-1.19-6.15-3.27l-2.02,1.97,2.3,2.75c.84,1,.78,2.43.65,3.73-.83,5.63,1.33,8.05,5.39,11.54l6.3-6.37ZM43.5,69.93l-1.79-1.35-.98,1.24,2.77.11Z"/>
    <path class="cls-3" d="M71.11,84.91c-.41.41-.93.39-1.39,0-2.92-2.49-3.62-7.19-1.63-10.32.95-1.49,7-2.39,10.05,1.75.49.67.3,1.2-.24,1.74l-6.79,6.83ZM75.19,77.72c.21-.21.48-.54.43-.72-.31-1.33-4.27-2-5.91-1.15-.92,2.19-.83,4.69.69,6.66l4.78-4.79Z"/>
  </g>
  <g>
    <rect class="cls-1" x="114.11" y="3.32" width="192.1" height="94.39"/>
    <path class="cls-4" d="M122.15,3.32v16.98h11.28V3.32h4.56v39.18h-4.56v-18.12h-11.28v18.12h-4.56V3.32h4.56Z"/>
    <path class="cls-4" d="M170.75,3.32v4.14h-12.84v12.9h10.26v3.72h-10.26v14.34h13.5v4.08h-18.06V3.32h17.4Z"/>
    <path class="cls-4" d="M186.4,42.5h-4.62l9.9-39.18h5.28l9.9,39.18h-4.62l-2.34-10.2h-11.16l-2.34,10.2ZM189.52,28.7h9.54l-4.74-20.82-4.8,20.82Z"/>
    <path class="cls-4" d="M228.22,25.28h-4.26v17.22h-4.56V3.32h9.72c6.24,0,9.18,3.78,9.18,10.62,0,6.12-2.04,9.42-5.88,10.44l7.8,18.12h-4.98l-7.02-17.22ZM223.96,21.56h4.8c3.78,0,5.1-2.34,5.1-7.32s-1.44-6.9-4.98-6.9h-4.92v14.22Z"/>
    <path class="cls-4" d="M269.15,3.32v4.14h-7.62v35.04h-4.56V7.46h-7.62V3.32h19.8Z"/>
    <path class="cls-4" d="M124.91,52.92v26.4c0,8.7-3.6,12.9-10.26,13.02l-.36-3.72c4.08,0,6.06-2.7,6.06-9.18v-26.52h4.56Z"/>
    <path class="cls-4" d="M157.66,52.92v4.14h-12.84v12.9h10.26v3.72h-10.26v14.34h13.5v4.08h-18.06v-39.18h17.4Z"/>
    <path class="cls-4" d="M180.4,74.88h-4.26v17.22h-4.56v-39.18h9.72c6.24,0,9.18,3.78,9.18,10.62,0,6.12-2.04,9.42-5.88,10.44l7.8,18.12h-4.98l-7.02-17.22ZM176.14,71.16h4.8c3.78,0,5.1-2.34,5.1-7.32s-1.44-6.9-4.98-6.9h-4.92v14.22Z"/>
    <path class="cls-4" d="M225.22,64.08v16.8c0,7.38-3.6,11.76-10.56,11.76s-10.56-4.38-10.56-11.7v-16.8c0-7.38,3.66-11.76,10.56-11.76s10.56,4.38,10.56,11.7ZM220.72,64.14c0-5.28-1.98-7.74-6.06-7.74s-6,2.4-6,7.74v16.8c0,5.34,1.92,7.74,6,7.74s6.06-2.4,6.06-7.8v-16.74Z"/>
    <path class="cls-4" d="M267.4,52.92v39.18h-4.14v-28.14l-8.76,20.94h-2.1l-8.7-20.94v28.14h-4.14v-39.18h4.14l9.78,25.14,9.78-25.14h4.14Z"/>
    <path class="cls-4" d="M300.16,52.92v4.14h-12.84v12.9h10.26v3.72h-10.26v14.34h13.5v4.08h-18.06v-39.18h17.4Z"/>
  </g>
  <g>
    <rect class="cls-1" x="268.13" y="19.83" width="33.69" height="48.71"/>
    <path class="cls-2" d="M269.02,40.05c0-4.48,3-9.44,7.44-9.44,2.22,0,3.52,1.33,3.52,3.66,0,4.48-3,9.44-7.44,9.44-2.22,0-3.52-1.33-3.52-3.66ZM277.42,34.94c0-1.81-.63-2.96-1.96-2.96-2.59,0-3.89,4.03-3.89,7.4,0,1.81.63,2.96,1.96,2.96,2.59,0,3.89-4.03,3.89-7.4Z"/>
    <path class="cls-2" d="M273.83,54.78c0-.59.26-1.26.52-1.78.89.26,1.78.44,2.85.44,2.22,0,3.81-1.26,5.4-7.73l3.11-12.66h-3.52c-.33,0-.48-.07-.48-.22,0-.44,1.63-1.41,3.55-1.41h.85c1.81-7.22,5.03-12.17,10.44-12.17,1.81,0,3.44.74,3.44,1.52s-.81,1.67-1.29,2.04c-1.18-.78-2.81-1.48-4.29-1.48-3.52,0-4.96,4.62-6.11,10.1h4.48c.22,0,.33.11.33.26,0,.44-.85,1.37-1.55,1.37h-3.63l-2.52,11.73c-1.48,6.88-6.55,11.06-10.03,11.06-1.29,0-1.55-.37-1.55-1.07Z"/>
  </g>
</svg>